<?xml version="1.0" standalone="no"?><!DOCTYPE svg PUBLIC "-//W3C//DTD SVG 1.1//EN" "http://www.w3.org/Graphics/SVG/1.1/DTD/svg11.dtd"><svg t="1588080027745" class="icon" viewBox="0 0 1024 1024" version="1.1" xmlns="http://www.w3.org/2000/svg" p-id="2088" xmlns:xlink="http://www.w3.org/1999/xlink" width="200" height="200"><defs><style type="text/css"></style></defs><path d="M224 384h576A96 96 0 0 1 896 480v384a96 96 0 0 1-96 96h-576A96 96 0 0 1 128 864v-384A96 96 0 0 1 224 384z m0 64a32 32 0 0 0-32 32v384a32 32 0 0 0 32 32h576a32 32 0 0 0 32-32v-384a32 32 0 0 0-32-32h-576z m576-160a32 32 0 1 1-64 0 224 224 0 0 0-448 0 32 32 0 0 1-64 0 288 288 0 0 1 576 0z m-320 320a32 32 0 0 1 64 0v128a32 32 0 1 1-64 0v-128z" p-id="2089"></path></svg>